HIERARCHY
ROOT Hips
{
	OFFSET 55.310501 45.591206 43.872097
	CHANNELS 6 Xposition Yposition Zposition Zrotation Xrotation Yrotation
	JOINT Chest
	{
		OFFSET -0.153500 1.163101 7.852402
		CHANNELS 6 Xposition Yposition Zposition Zrotation Xrotation Yrotation
		JOINT Chest2
		{
			OFFSET 0.000000 0.000000 3.343300
			CHANNELS 6 Xposition Yposition Zposition Zrotation Xrotation Yrotation
			JOINT Neck
			{
				OFFSET 0.000000 0.000000 7.785500
				CHANNELS 6 Xposition Yposition Zposition Zrotation Xrotation Yrotation
				JOINT Head
				{
					OFFSET 0.000000 0.000000 2.173901
					CHANNELS 6 Xposition Yposition Zposition Zrotation Xrotation Yrotation
					End Site
					{
						OFFSET 0.000000 0.000000 10.528198
					}
				}
			}
			JOINT LeftCollar
			{
				OFFSET 2.676300 -1.652401 4.938301
				CHANNELS 6 Xposition Yposition Zposition Zrotation Xrotation Yrotation
				JOINT LeftShoulder
				{
					OFFSET 4.299000 0.000000 0.000000
					CHANNELS 6 Xposition Yposition Zposition Zrotation Xrotation Yrotation
					JOINT LeftElbow
					{
						OFFSET 0.000000 0.000000 -10.245102
						CHANNELS 6 Xposition Yposition Zposition Zrotation Xrotation Yrotation
						JOINT LeftWrist
						{
							OFFSET 0.000000 0.000000 -12.703300
							CHANNELS 6 Xposition Yposition Zposition Zrotation Xrotation Yrotation
							End Site
							{
								OFFSET 0.000000 0.000000 -2.173901
							}
						}
					}
				}
			}
			JOINT RightCollar
			{
				OFFSET -2.534599 -1.686401 5.195000
				CHANNELS 6 Xposition Yposition Zposition Zrotation Xrotation Yrotation
				JOINT RightShoulder
				{
					OFFSET -4.144100 0.000000 0.000000
					CHANNELS 6 Xposition Yposition Zposition Zrotation Xrotation Yrotation
					JOINT RightElbow
					{
						OFFSET 0.000000 0.000000 -10.116501
						CHANNELS 6 Xposition Yposition Zposition Zrotation Xrotation Yrotation
						JOINT RightWrist
						{
							OFFSET 0.000000 0.000000 -12.937801
							CHANNELS 6 Xposition Yposition Zposition Zrotation Xrotation Yrotation
							End Site
							{
								OFFSET 0.000000 0.000000 -2.173901
							}
						}
					}
				}
			}
		}
	}
	JOINT LeftHip
	{
		OFFSET 2.175598 0.064499 -2.662899
		CHANNELS 6 Xposition Yposition Zposition Zrotation Xrotation Yrotation
		JOINT LeftKnee
		{
			OFFSET 0.000000 -0.000004 -18.585800
			CHANNELS 6 Xposition Yposition Zposition Zrotation Xrotation Yrotation
			JOINT LeftAnkle
			{
				OFFSET 0.000000 0.000000 -18.979500
				CHANNELS 6 Xposition Yposition Zposition Zrotation Xrotation Yrotation
				End Site
				{
					OFFSET 0.000000 -9.264000 0.000000
				}
			}
		}
	}
	JOINT RightHip
	{
		OFFSET -2.092400 -0.058102 -2.581200
		CHANNELS 6 Xposition Yposition Zposition Zrotation Xrotation Yrotation
		JOINT RightKnee
		{
			OFFSET 0.000000 -0.000004 -18.665001
			CHANNELS 6 Xposition Yposition Zposition Zrotation Xrotation Yrotation
			JOINT RightAnkle
			{
				OFFSET 0.000000 0.000000 -18.566601
				CHANNELS 6 Xposition Yposition Zposition Zrotation Xrotation Yrotation
				End Site
				{
					OFFSET 0.000000 -8.497601 0.000000
				}
			}
		}
	}
}
MOTION
Frames: 10
Frame Time: 0.041667
57.753899 68.062813 43.682793 917.930105 -5.039465 2.016846 -0.153490 1.163093 7.852404 -18.314078 10.277500 2.080949 -0.000002 -0.000002 3.343299 13.871258 -3.346520 1.232740 0.000000 -0.000009 7.785500 -46.488825 -12.858912 5.559986 -0.000005 0.000004 2.173895 -6.881459 -7.266055 -6.927529 2.676298 -1.652395 4.938297 -7.880338 2.841785 0.617296 4.299002 0.000006 -0.000009 -32.462885 15.369956 -29.075914 -0.000003 0.000010 -10.245098 4.287988 717.797858 1.187924 0.000002 -0.000012 -12.703301 1307.470000 -185.539370 534.114236 -2.534592 -1.686399 5.195000 -0.412846 1.022422 -6.736545 -4.144100 -0.000015 -0.000007 10.130798 -46.184015 88.438683 -0.000006 -0.000011 -10.116491 -103.037051 -17.345759 -29.384997 -0.000001 0.000003 -12.937800 5.878353 -385.325969 -11.711435 2.175596 0.064487 -2.662895 -372.937645 12.968196 -4.033178 -0.000012 0.000000 -18.585794 189.082886 -193.289955 -161.966871 0.000002 -0.000012 -18.979513 372.745717 3.466846 -128.503698 -2.092398 -0.058105 -2.581190 325.809312 -20.760193 -5.306540 -0.000001 0.000000 -18.664993 -1085.882599 21.562902 3.769674 0.000004 -0.000007 -18.566608 772.241623 27.688866 9.044908
57.738491 68.267807 43.656796 918.669405 -5.179104 2.042186 -0.153513 1.163105 7.852401 -19.046389 10.351725 2.094070 0.000008 0.000014 3.343298 14.255736 -3.264666 1.263934 0.000002 -0.000004 7.785495 -46.515770 -12.811346 5.652603 0.000000 -0.000008 2.173900 -6.806458 -7.226820 -6.989123 2.676304 -1.652400 4.938302 -7.805404 2.810861 -0.039682 4.298992 0.000004 -0.000002 -33.179082 14.948713 -28.122220 -0.000004 0.000006 -10.245106 4.293263 717.821026 1.208058 0.000001 -0.000010 -12.703300 1307.601249 -185.569792 534.257834 -2.534595 -1.686403 5.195004 -0.341099 1.123081 -6.722643 -4.144093 -0.000018 -0.000009 9.056912 -46.134035 86.872090 0.000007 0.000001 -10.116492 -103.464095 -17.415633 -29.634593 0.000003 0.000003 -12.937811 5.974659 -385.886318 -11.550971 2.175574 0.064503 -2.662892 -373.359833 13.435936 -4.057412 -0.000003 0.000001 -18.585806 189.121955 -193.246242 -161.928390 -0.000005 0.000000 -18.979517 372.486497 3.375579 -128.525486 -2.092417 -0.058109 -2.581196 325.704619 -20.595517 -5.415005 0.000001 -0.000008 -18.665010 -1085.411480 21.432379 3.970905 0.000011 0.000000 -18.566607 773.824151 27.553396 8.133954
57.724293 68.479607 43.633698 919.428922 -5.299166 2.069211 -0.153492 1.163094 7.852408 -19.796631 10.387779 2.096893 0.000002 0.000007 3.343304 14.683604 -3.184225 1.302145 0.000005 -0.000006 7.785494 -46.578130 -12.731353 5.750308 0.000003 -0.000001 2.173913 -6.741493 -7.180834 -7.052314 2.676304 -1.652404 4.938301 -7.916417 2.831545 -0.089454 4.299011 0.000010 0.000009 -33.551143 14.789969 -27.740588 0.000001 0.000004 -10.245098 4.261009 717.840096 1.232828 -0.000000 -0.000002 -12.703297 1307.689550 -185.606402 534.401487 -2.534586 -1.686408 5.194996 -0.303618 1.239569 -6.745350 -4.144098 0.000000 0.000003 7.975906 -45.916835 85.338672 0.000003 -0.000006 -10.116503 -103.940740 -17.502992 -29.872997 0.000009 -0.000002 -12.937796 5.956956 -385.518635 -11.292301 2.175595 0.064487 -2.662891 -373.792266 13.888634 -4.097615 -0.000008 -0.000016 -18.585796 189.071275 -193.195849 -161.875429 -0.000008 -0.000002 -18.979511 372.315743 3.274163 -128.548354 -2.092397 -0.058106 -2.581199 325.643639 -20.438808 -5.519855 -0.000006 -0.000017 -18.665009 -1084.890527 21.489730 4.337742 0.000014 -0.000013 -18.566608 775.269528 27.364600 7.232831
57.709797 68.698608 43.615692 920.236851 -5.431280 2.114485 -0.153505 1.163101 7.852397 -20.592426 10.433913 2.088581 0.000000 0.000009 3.343301 15.034037 -3.074545 1.319596 0.000000 0.000004 7.785498 -46.552671 -12.686504 5.837357 -0.000001 0.000007 2.173905 -6.686069 -7.130239 -7.125014 2.676297 -1.652397 4.938295 -7.852176 2.584564 -0.161629 4.299007 -0.000003 -0.000009 -33.840138 14.728128 -27.241226 -0.000006 0.000006 -10.245098 4.068739 717.812775 1.265868 -0.000004 -0.000009 -12.703299 1307.699822 -185.634255 534.475526 -2.534596 -1.686399 5.194996 -0.145377 1.376852 -6.657968 -4.144105 -0.000009 0.000006 6.796251 -45.805796 83.715074 0.000006 0.000009 -10.116486 -104.227717 -17.620274 -30.056346 0.000010 -0.000004 -12.937800 5.908723 -385.776871 -11.830262 2.175583 0.064493 -2.662896 -374.159976 14.340351 -4.158003 -0.000004 -0.000009 -18.585802 188.847969 -193.152832 -161.834161 0.000003 0.000001 -18.979515 372.253014 3.174248 -128.565088 -2.092402 -0.058110 -2.581195 325.461465 -20.252341 -5.600222 -0.000004 -0.000015 -18.665001 -1084.319087 21.695633 4.764654 -0.000001 0.000004 -18.566603 776.788180 27.079719 6.181374
57.693592 68.925903 43.602394 921.046966 -5.591718 2.182778 -0.153506 1.163105 7.852404 -21.390119 10.550112 2.076376 0.000001 0.000015 3.343306 15.416753 -2.990224 1.341728 0.000008 -0.000002 7.785499 -46.565269 -12.681125 5.889137 0.000005 0.000000 2.173903 -6.618800 -7.068651 -7.216022 2.676299 -1.652389 4.938301 -7.706017 2.299176 -0.285204 4.299002 0.000001 0.000006 -34.270836 14.651837 -26.689745 -0.000005 0.000004 -10.245106 3.940381 717.814578 1.291299 -0.000008 0.000004 -12.703300 1307.619609 -185.637752 534.644423 -2.534594 -1.686398 5.195004 -0.059833 1.489736 -6.595359 -4.144095 -0.000003 -0.000003 5.630335 -45.721433 82.081190 0.000007 -0.000003 -10.116500 -104.400869 -17.756728 -30.245416 0.000008 0.000000 -12.937798 5.851036 -386.006365 -12.545496 2.175587 0.064506 -2.662898 -374.464438 14.794774 -4.230541 -0.000005 -0.000002 -18.585804 188.647639 -193.182926 -161.839679 0.000007 0.000009 -18.979517 372.138759 3.087602 -128.576371 -2.092406 -0.058099 -2.581198 325.376579 -19.991209 -5.590399 -0.000002 -0.000009 -18.665005 -1083.685026 21.991698 5.140834 -0.000001 0.000002 -18.566603 778.031165 26.707892 5.325267
57.675694 69.162407 43.594494 921.861125 -5.771687 2.266694 -0.153498 1.163109 7.852406 -22.188858 10.666479 2.059891 0.000000 0.000004 3.343300 15.788139 -2.887394 1.351579 -0.000001 -0.000009 7.785502 -46.543938 -12.677391 5.950380 -0.000006 0.000007 2.173906 -6.582116 -7.029679 -7.309456 2.676301 -1.652398 4.938301 -7.562980 1.906064 -0.532310 4.298998 0.000005 -0.000001 -34.499839 14.516271 -26.011865 -0.000006 0.000002 -10.245093 3.712133 717.762996 1.333018 -0.000003 -0.000010 -12.703292 1307.348914 -185.690263 534.815942 -2.534592 -1.686406 5.195004 0.374517 1.775774 -6.588960 -4.144112 -0.000007 -0.000001 4.200494 -45.837341 80.540156 -0.000001 -0.000008 -10.116507 -104.535676 -17.841125 -30.391330 0.000004 0.000009 -12.937803 5.804205 -386.336181 -13.375747 2.175596 0.064499 -2.662896 -374.733602 15.266354 -4.312369 -0.000007 0.000000 -18.585798 188.384691 -193.224822 -161.854883 0.000001 0.000004 -18.979513 372.049502 3.041040 -128.501663 -2.092395 -0.058102 -2.581192 325.401550 -19.692832 -5.464541 -0.000000 0.000006 -18.665003 -1083.228442 22.299149 5.432470 0.000000 -0.000002 -18.566605 779.206886 26.445126 4.620590
57.656796 69.405304 43.593994 922.629384 -5.990803 2.351196 -0.153502 1.163100 7.852398 -22.945228 10.848512 2.064486 0.000002 0.000014 3.343305 16.204593 -2.826098 1.372395 0.000003 -0.000006 7.785504 -46.564692 -12.678428 6.009859 -0.000006 0.000011 2.173902 -6.543034 -7.002261 -7.359243 2.676295 -1.652404 4.938305 -7.459852 1.631522 -0.520038 4.299006 -0.000006 0.000001 -34.740432 14.475322 -25.623385 -0.000000 0.000003 -10.245087 3.532052 717.683985 1.365868 -0.000001 -0.000006 -12.703293 1307.151440 -185.737678 535.059370 -2.534594 -1.686403 5.194997 0.497558 1.924393 -6.561675 -4.144104 -0.000002 0.000002 2.704464 -45.626118 78.830813 -0.000001 -0.000013 -10.116498 -104.735439 -17.797376 -30.655409 0.000002 0.000006 -12.937795 5.691002 -386.278534 -13.291430 2.175592 0.064507 -2.662902 -374.967550 15.788064 -4.373684 -0.000002 -0.000021 -18.585800 187.959539 -193.207187 -161.862888 -0.000006 0.000002 -18.979515 372.176871 3.009926 -128.466310 -2.092404 -0.058104 -2.581198 325.471327 -19.272586 -5.239839 -0.000001 -0.000005 -18.665012 -1082.996325 22.479792 5.637991 0.000004 0.000016 -18.566607 780.099346 26.242905 4.072128
57.635700 69.653908 43.601494 923.415785 -6.219114 2.455833 -0.153496 1.163110 7.852403 -23.716000 11.065320 2.046094 0.000004 0.000006 3.343301 16.534500 -2.722356 1.368313 0.000004 0.000001 7.785502 -46.479868 -12.772518 6.065368 -0.000006 0.000014 2.173909 -6.496075 -6.960894 -7.425976 2.676295 -1.652392 4.938295 -7.071591 0.925785 -0.595283 4.299002 0.000018 0.000003 -34.969578 14.545902 -24.963669 -0.000006 -0.000000 -10.245103 3.168973 717.595083 1.393056 0.000003 -0.000001 -12.703298 1306.903368 -185.725029 535.283564 -2.534592 -1.686401 5.194996 1.369677 2.279072 -6.045473 -4.144101 -0.000003 -0.000003 0.463169 -45.942393 76.486501 0.000008 0.000005 -10.116485 -104.782280 -17.957401 -30.691455 -0.000001 0.000000 -12.937789 5.713544 -386.524421 -13.821884 2.175599 0.064511 -2.662899 -375.120628 16.269726 -4.452271 -0.000004 0.000001 -18.585802 187.643164 -193.309476 -161.942897 -0.000024 0.000007 -18.979515 372.126355 2.987833 -128.442308 -2.092403 -0.058103 -2.581196 325.580911 -18.789797 -4.905458 0.000000 -0.000008 -18.665012 -1082.929990 22.568994 5.686854 0.000002 -0.000002 -18.566605 780.738707 26.175882 3.628643
57.614403 69.907906 43.615192 924.109077 -6.492003 2.564777 -0.153509 1.163096 7.852399 -24.394767 11.350638 2.034683 0.000001 -0.000005 3.343306 17.173268 -2.637883 1.326187 0.000006 -0.000001 7.785500 -46.651524 -12.917042 6.156764 -0.000002 0.000004 2.173910 -6.452974 -6.923887 -7.490228 2.676302 -1.652394 4.938303 -7.025339 0.383190 -0.568996 4.299000 -0.000005 0.000001 -35.258263 14.528470 -24.418966 -0.000005 0.000005 -10.245098 2.946601 717.543174 1.416371 0.000002 -0.000013 -12.703302 1306.677480 -185.718062 535.559067 -2.534587 -1.686408 5.194993 1.064781 2.445208 -5.669367 -4.144106 0.000001 -0.000005 -0.951427 -45.779848 74.344656 0.000005 -0.000007 -10.116483 -104.937578 -17.970685 -30.841299 0.000015 0.000002 -12.937804 5.689513 -386.835769 -14.437261 2.175582 0.064492 -2.662905 -375.316491 16.813219 -4.508484 -0.000008 -0.000009 -18.585794 187.516696 -193.425056 -162.029040 -0.000012 0.000015 -18.979517 372.003958 3.001508 -128.380331 -2.092411 -0.058108 -2.581198 326.012852 -18.221690 -4.439862 0.000003 -0.000004 -18.665003 -1083.213142 22.534783 5.662045 -0.000003 -0.000015 -18.566603 781.210044 26.282068 3.225668
57.595596 70.162521 43.634895 924.792205 -6.728395 2.665023 -0.153495 1.163114 7.852397 -25.061921 11.579735 2.012306 0.000008 -0.000002 3.343299 17.568633 -2.559010 1.349380 -0.000007 0.000001 7.785507 -46.530466 -12.981640 6.210837 -0.000010 0.000008 2.173911 -6.427725 -6.901361 -7.526529 2.676286 -1.652390 4.938303 -6.830552 -0.021765 -0.573358 4.299002 0.000011 0.000002 -35.347158 14.411202 -24.009903 -0.000006 -0.000005 -10.245088 2.546057 717.451431 1.446720 0.000005 -0.000009 -12.703301 1306.558142 -185.740246 535.749274 -2.534603 -1.686401 5.195011 1.076326 2.629291 -5.417563 -4.144111 -0.000003 0.000001 -2.293631 -45.372609 72.313870 -0.000001 0.000008 -10.116492 -105.226946 -18.002820 -30.914324 0.000007 0.000005 -12.937798 5.059100 -387.223778 -15.335684 2.175601 0.064507 -2.662902 -375.671934 17.386156 -4.543809 0.000000 -0.000011 -18.585802 187.387988 -193.407420 -162.053861 -0.000000 0.000004 -18.979515 372.037126 3.073041 -128.349664 -2.092385 -0.058098 -2.581195 326.442307 -17.687166 -3.963952 -0.000003 -0.000005 -18.665001 -1083.824909 22.419602 5.664723 0.000003 0.000002 -18.566601 781.787059 26.447225 2.540233
